SplineFontDB: 1.0
FontName: post_bmo
FullName: post_bmo
FamilyName: post_bmo
Weight: Medium
Copyright: Created by Andrey V. Panov with FontForge 1.0 (http://fontforge.sf.net)
Comments: 2006-5-30: Created.
Version: 1
ItalicAngle: -12
UnderlinePosition: -100
UnderlineWidth: 50
Ascent: 800
Descent: 200
NeedsXUIDChange: 1
XUID: [1021 305 2130962764 14458179]
OS2TypoAscent: 0
OS2TypoAOffset: 1
OS2TypoDescent: 0
OS2TypoDOffset: 1
OS2TypoLinegap: 0
OS2WinAscent: 0
OS2WinAOffset: 1
OS2WinDescent: 0
OS2WinDOffset: 1
HheadAscent: 0
HheadAOffset: 1
HheadDescent: 0
HheadDOffset: 1
OS2Vendor: 'PfEd'
Encoding: UnicodeBmp
UnicodeInterp: none
NameList: Adobe Glyph List
DisplaySize: -48
AntiAlias: 1
FitToEm: 1
WinInfo: 1072 16 14
BeginChars: 65536 39
StartChar: exclam
Encoding: 33 33 0
Width: 325
Flags: MW
TeX: 0 0 0 0
HStem: 0 78<123 201> 675 20G<271 349>
Fore
349 695 m 1
 231 177 l 1
 168 177 l 1
 271 695 l 1
 349 695 l 1
EndSplineSet
Refer: 1 46 N 1 0 0 1 17 0 2
EndChar
StartChar: period
Encoding: 46 46 1
Width: 292
Flags: MW
TeX: 0 0 0 0
HStem: 0 78<122 184 106 201>
Fore
201 78 m 1
 184 0 l 1
 106 0 l 1
 122 78 l 1
 201 78 l 1
EndSplineSet
EndChar
StartChar: six
Encoding: 54 54 2
Width: 525
Flags: HW
TeX: 0 0 0 0
HStem: -17 52<228.5 345.5> 401 50<309.5 450.5> 622 50<375 477>
VStem: 105 60<100 320.5> 461 64<276 317>
Fore
105 184 m 0
 105 457 284 672 466 672 c 0
 488 672 523 671 575 653 c 1
 564 601 l 1
 523 616 498 622 455 622 c 0
 297 622 209 448 191 333 c 1
 236 400 317 451 401 451 c 0
 500 451 525 343 525 291 c 0
 525 261 517 195 490 141 c 0
 459 80 392 19 337 -2 c 0
 316 -11 290 -17 259 -17 c 0
 198 -17 105 16 105 184 c 0
355 401 m 0
 264 401 180 320 170 217 c 0
 168 200 165 182 165 164 c 0
 166 105 178 83 194 66 c 0
 213 45 240 35 271 35 c 0
 420 35 445 196 449 216 c 0
 459 262 461 279 461 294 c 0
 461 326 450 401 355 401 c 0
EndSplineSet
EndChar
StartChar: nine
Encoding: 57 57 3
Width: 525
Flags: HW
TeX: 0 0 0 0
HStem: -17 52<180 290> 204 51<212 349> 622 50<350 439>
VStem: 138 64<339 379.5> 498 60<443 556.5>
Fore
262 204 m 0
 162 204 138 313 138 365 c 0
 138 394 146 460 172 513 c 0
 203 575 291 672 409 672 c 0
 469 672 558 639 558 474 c 0
 558 412 542 316 517 250 c 0
 478 147 368 -17 212 -17 c 0
 148 -17 115 2 82 29 c 1
 82 30 l 1
 118 75 l 1
 148 49 176 35 224 35 c 0
 321 35 421 116 466 296 c 24
 469 307 472 324 472 324 c 1
 429 257 346 204 262 204 c 0
308 255 m 0
 384 255 498 317 498 498 c 0
 498 604 438 622 397 622 c 0
 354 622 321 610 291 585 c 0
 242 544 227 503 213 439 c 0
 204 393 202 377 202 361 c 0
 202 330 213 255 308 255 c 0
EndSplineSet
EndChar
StartChar: B
Encoding: 66 66 4
Width: 687
Flags: HW
TeX: 0 0 0 0
HStem: 0 53<99 357> 336 50<238 392> 641 54<247 468>
VStem: 604 67<170 257.5> 646 66<518.5 567.5>
Fore
671 214 m 0xf0
 671 126 566 19 408 2 c 0
 387 0 367 0 347 0 c 2
 99 0 l 1
 246 694 l 1
 247 695 l 1
 439 695 l 2
 497 695 565 697 630 662 c 0
 683 633 712 591 712 544 c 0xe8
 712 508 689 407 494 363 c 1
 581 351 671 301 671 214 c 0xf0
345 386 m 2
 439 386 521.717 391.362 598 451 c 0
 628.885 475.146 646 504 646 533 c 0
 646 566 621.898 597.752 568 620 c 0
 512.895 642.746 462 641 417 641 c 2
 303 641 l 1
 249 386 l 1
 345 386 l 2
303 53 m 2
 371 53 427 52 495 83 c 0
 562 112 604 158 604 208 c 0xf0
 604 268 545 300 530 307 c 0
 472 337 413 336 363 336 c 2
 238 336 l 1
 178 53 l 1
 303 53 l 2
EndSplineSet
EndChar
StartChar: D
Encoding: 68 68 5
Width: 746
Flags: HW
TeX: 0 0 0 0
HStem: 0 53<98 353.5> 641 54<246 606.5>
VStem: 700 68<316 495>
Fore
498 695 m 2
 715 695 768 527 768 422 c 0
 768 210 592 27 406 3 c 0
 385 0 364 0 343 0 c 2
 98 0 l 1
 246 695 l 1
 498 695 l 2
700 423 m 0
 700 566 608 641 485 641 c 2
 303 641 l 1
 178 53 l 1
 313 53 l 2
 360 53 385 53 417 58 c 0
 620 96 700 289 700 423 c 0
EndSplineSet
EndChar
StartChar: H
Encoding: 72 72 6
Width: 708
Flags: MW
TeX: 0 0 0 0
HStem: 0 21G<98 168 539 609> 335 53<250 610 239 622> 675 20G<246 316 687 757>
Fore
246 695 m 1
 316 695 l 1
 250 388 l 1
 622 388 l 1
 687 695 l 1
 757 695 l 1
 609 0 l 1
 539 0 l 1
 610 335 l 1
 239 335 l 1
 168 0 l 1
 98 0 l 1
 246 695 l 1
EndSplineSet
EndChar
StartChar: I
Encoding: 73 73 7
Width: 267
Flags: HW
TeX: 0 0 0 0
HStem: 0 21G<98 168> 675 20G<246 316>
Fore
316 695 m 1
 168 0 l 1
 98 0 l 1
 246 695 l 1
 316 695 l 1
EndSplineSet
EndChar
StartChar: J
Encoding: 74 74 8
Width: 483
Flags: HW
TeX: 0 0 0 0
HStem: -17 52<167 287> 675 20G<487 556>
Fore
207 35 m 0
 367 35 374 163 379 185 c 2
 487 695 l 1
 556 695 l 1
 446 180 l 2
 440 151 432 73 359 22 c 0
 318 -6 268 -17 219 -17 c 0
 151 -17 94 1 49 25 c 1
 74 89 l 1
 88 75 127 35 207 35 c 0
EndSplineSet
EndChar
StartChar: K
Encoding: 75 75 9
Width: 704
Flags: HW
TeX: 0 0 0 0
HStem: 0 21G<100 166 584 660> 675 20G<248 314 712 793>
Fore
712 695 m 1
 793 695 l 1
 454 419 l 1
 660 0 l 1
 584 0 l 1
 400 375 l 1
 214 224 l 1
 166 0 l 1
 100 0 l 1
 248 695 l 1
 314 695 l 1
 231 305 l 1
 712 695 l 1
EndSplineSet
EndChar
StartChar: L
Encoding: 76 76 10
Width: 567
Flags: MW
TeX: 0 0 0 0
HStem: 0 53<179 523> 675 20G<246 316>
Fore
316 695 m 1
 179 53 l 1
 534 53 l 1
 523 0 l 1
 98 0 l 1
 246 695 l 1
 316 695 l 1
EndSplineSet
EndChar
StartChar: M
Encoding: 77 77 11
Width: 883
Flags: HW
TeX: 0 0 0 0
HStem: -0 21G<101 164 717 780> 675 20G<249 341 835 928>
Fore
249 695 m 1
 341 695 l 1
 419 297 l 2
 432 225 447 154 458 81 c 1
 458 81 468 101 479 118 c 2
 835 695 l 1
 928 695 l 1
 780 -0 l 1
 717 -0 l 1
 845 599 l 2
 849 619 851 630 851 630 c 1
 474 17 l 1
 413 17 l 1
 413 17 370 229 334 426 c 2
 303 595 l 2
 299 615 298 630 298 630 c 1
 297 630 l 1
 164 -0 l 1
 101 -0 l 1
 249 695 l 1
EndSplineSet
EndChar
StartChar: N
Encoding: 78 78 12
Width: 708
Flags: HW
TeX: 0 0 0 0
HStem: 0 21G<100 163 510 608> 675 20G<248 345 693 755>
Fore
345 695 m 1
 557 58 l 1
 693 695 l 1
 755 695 l 1
 608 0 l 1
 510 0 l 1
 298 636 l 1
 163 0 l 1
 100 0 l 1
 248 695 l 1
 345 695 l 1
EndSplineSet
EndChar
StartChar: P
Encoding: 80 80 13
Width: 658
Flags: HW
TeX: 0 0 0 0
HStem: 0 21G<98 168> 296 51<231 426> 641 54<246 514.5>
VStem: 641 66<477 561.5>
Fore
485 695 m 2
 544 695 585 687 626 663 c 0
 665 640 707 596 707 527 c 0
 707 427 595 303 426 296 c 0
 426 296 390 295 367 295 c 2
 231 295 l 1
 168 0 l 1
 98 0 l 1
 246 695 l 1
 485 695 l 2
374 347 m 2
 441 347 520 348 582 401 c 0
 615 430 641 475 641 523 c 0
 641 581 605 607 583 619 c 0
 542 641 494 641 448 641 c 2
 303 641 l 1
 240 347 l 1
 374 347 l 2
EndSplineSet
EndChar
StartChar: W
Encoding: 87 87 14
Width: 967
Flags: HW
TeX: 0 0 0 0
HStem: -5 21G<225 295 666 738> 675 20G<162 230 597 667 1038 1099>
VStem: 162 68<695 695>
Fore
162 695 m 1
 230 695 l 1
 287 65 276 128 280 65 c 1
 280 65 286 82 295 100 c 2
 392 294 l 2
 459 428 597 695 597 695 c 1
 667 695 l 1
 667 695 687 486 703 287 c 2
 718 102 l 2
 720 82 718 65 718 65 c 1
 718 65 773 178 796 223 c 2
 1038 695 l 1
 1099 695 l 1
 738 -5 l 1
 666 -5 l 1
 628 429 l 2
 619 549 615 590 615 630 c 1
 615 630 593 578 570 533 c 2
 295 -5 l 1
 225 -5 l 1
 162 695 l 1
EndSplineSet
EndChar
StartChar: Y
Encoding: 89 89 15
Width: 675
Flags: HW
TeX: 0 0 0 0
HStem: -0 21G<303 371> 675 20G<150 235 742 819>
Fore
150 695 m 1
 235 695 l 1
 414 342 l 1
 742 695 l 1
 819 695 l 1
 447 295 l 2
 441 289 436 283 430 277 c 1
 429 273 428 268 427 263 c 2
 371 -0 l 1
 303 -0 l 1
 359 264 l 2
 360 268 360 268 361 277 c 1
 353 295 l 1
 150 695 l 1
EndSplineSet
EndChar
StartChar: w
Encoding: 119 119 16
Width: 692
Flags: MW
TeX: 0 0 0 0
HStem: -3 21<159 159 159 224 459 459 459 531> 452 20G<115 178 416 474 716 777>
VStem: 115 63<472 472>
Fore
159 -3 m 1
 115 472 l 1
 178 472 l 1
 200 222 l 2
 204 169 209 117 210 65 c 1
 234 120 263 171 288 225 c 2
 416 472 l 1
 474 472 l 1
 506 98 l 2
 507 88 508 65 508 65 c 1
 508 65 523 98 537 125 c 2
 716 472 l 1
 777 472 l 1
 531 -3 l 1
 459 -3 l 1
 459 -3 448 98 441 198 c 2
 428 377 l 2
 427 387 428 408 428 408 c 1
 411 356 233 17 224 -3 c 1
 159 -3 l 1
EndSplineSet
EndChar
StartChar: Upsilon
Encoding: 933 933 17
Width: 817
Flags: HW
TeX: 0 0 0 0
HStem: -0 21G<373 443> 659 52<330.5 398.4 656 783>
VStem: 466 42<463 573.5> 813 66<578.5 626.5>
Fore
371 711 m 0
 425.8 711 510.505 682.877 508 510 c 2
 506 463 l 1
 529.704 535.1 603.816 711 748 711 c 0
 818 711 879 667 879 586 c 0
 879 576 878 566 876 555 c 1
 811 555 l 1
 813 566 813 571 813 586 c 0
 813 612 790 659 738 659 c 0
 574 659 529 405 503 283 c 2
 443 -0 l 1
 373 -0 l 1
 432 277 l 2
 447 354 466 424 466 508 c 0
 466 639 401 659 358 659 c 0
 313 659 257 623 241 555 c 1
 176 555 l 1
 196 649 290 711 371 711 c 0
EndSplineSet
EndChar
StartChar: beta
Encoding: 946 946 18
Width: 525
Flags: HMW
TeX: 0 0 0 0
HStem: -120 21<18 83 18 18> -8 49<222.5 320> 367 42<260 317> 659 44<312.5 437>
VStem: 463 66<171 297> 481 66<508 628>
Fore
263 -8 m 0x78
 182 -8 147 42 128 92 c 1
 83 -120 l 1
 18 -120 l 1
 150 500 l 2
 183 632 251 703 386 703 c 0
 488 703 547 671 547 585 c 0x74
 547 471 480 425 413 395 c 1
 491 376 529 333 529 257 c 0
 529 85 377 -8 263 -8 c 0x78
463 246 m 0x78
 463 348 374 367 260 367 c 1
 269 409 l 1
 360 412 481 442 481 574 c 0x74
 481 625 454 659 377 659 c 0
 248 659 226 553 203 447 c 0
 157 233 151 205 151 179 c 0
 151 108 190 41 272 41 c 0
 356 41 463 115 463 246 c 0x78
EndSplineSet
EndChar
StartChar: delta
Encoding: 948 948 19
Width: 496
Flags: HW
TeX: 0 0 0 0
HStem: -8 51<198 312> 641 52<271 314>
VStem: 85 63<118.5 234> 184 53<553 603.5> 442 63<206 319>
Fore
291 641 m 0
 264 641 237 612 237 588 c 0
 237 567 256.067 557.095 287 535 c 2
 441 425 l 2
 485 388 505 339 505 279 c 0
 505 133 378 -8 246 -8 c 0
 150 -8 85 67 85 170 c 0
 85 298 186 430 307 453 c 1
 216 517 184 530 184 576 c 0
 184 631 242 693 300 693 c 0
 328 693 343.96 680.944 361 669 c 0
 468 594 522 557 539 544 c 1
 504 501 l 1
 503 501 l 1
 304 640 310 641 291 641 c 0
336 406 m 0
 243 406 148 288 148 169 c 0
 148 92 190 43 254 43 c 0
 354 43 442 167 442 280 c 0
 442 358 399 406 336 406 c 0
EndSplineSet
EndChar
StartChar: pi
Encoding: 960 960 20
Width: 612
Flags: W
TeX: 0 0 0 0
HStem: -8 60<445 521> 410 62<218.5 669>
VStem: 377 67<46.5 84>
Fore
494 52 m 0
 548 52 558 88 558 88 c 1
 603 88 l 1
 584 15 514 -8 471 -8 c 0
 419 -8 377 23 377 70 c 0
 377 80 380 93 382 104 c 2
 448 410 l 1
 304 410 l 1
 215 -8 l 1
 151 -8 l 1
 240 410 l 1
 197 410 167 404 120 391 c 1
 114 453 l 1
 168 466 187 472 285 472 c 2
 669 472 l 1
 655 410 l 1
 512 410 l 1
 445 96 l 2
 444 91 444 86 444 82 c 0
 444 59 471 52 494 52 c 0
EndSplineSet
EndChar
StartChar: afii10018
Encoding: 1041 1041 21
Width: 687
Flags: HW
TeX: 0 0 0 0
HStem: 0 53<99 357> 335 53<238 406> 641 54<247 718>
VStem: 605 67<174.5 263.5>
Fore
247 695 m 1
 718 695 l 1
 706 641 l 1
 303 641 l 1
 249 388 l 1
 406 388 l 2
 465 388 518 390 577 360 c 0
 607 346 672 305 672 222 c 0
 672 127 564 19 408 2 c 0
 387 0 367 0 347 0 c 2
 99 0 l 1
 247 695 l 1
301 53 m 2
 393 53 469.731 57.3641 545 113 c 0
 585.854 143.198 605 179 605 212 c 0
 605 252 577 290 522 314 c 0
 469 336 418 335 374 335 c 2
 238 335 l 1
 178 53 l 1
 301 53 l 2
EndSplineSet
EndChar
StartChar: afii10020
Encoding: 1043 1043 22
Width: 567
Flags: HW
TeX: 0 0 0 0
HStem: 0 21G<98 168> 641 54<246 670>
Fore
246 695 m 5
 670 695 l 1
 659 641 l 1
 304 641 l 1
 168 0 l 1
 98 0 l 1
 246 695 l 5
EndSplineSet
EndChar
StartChar: afii10022
Encoding: 1045 1045 23
Width: 625
Flags: MW
TeX: 0 0 0 0
HStem: 0 56<180 581> 335 53<250 608 239 619> 641 54<246 714>
Fore
246 695 m 1
 714 695 l 1
 703 641 l 1
 304 641 l 1
 250 388 l 1
 619 388 l 1
 608 335 l 1
 239 335 l 1
 180 56 l 1
 593 56 l 1
 581 0 l 1
 98 0 l 1
 246 695 l 1
EndSplineSet
EndChar
StartChar: afii10024
Encoding: 1046 1046 24
Width: 1142
Flags: W
TeX: 0 0 0 0
HStem: 0 21G<43 119 537 603 1020 1097> 675 20G<205 287 684 751 1148 1229>
Fore
684 695 m 1
 751 695 l 1
 668 305 l 1
 1148 695 l 1
 1229 695 l 1
 891 419 l 1
 1097 0 l 1
 1020 0 l 1
 837 375 l 1
 650 224 l 1
 603 0 l 1
 537 0 l 1
 584 224 l 1
 463 375 l 1
 119 0 l 1
 43 0 l 1
 427 420 l 1
 205 695 l 1
 287 695 l 1
 602 305 l 1
 684 695 l 1
EndSplineSet
EndChar
StartChar: afii10031
Encoding: 1053 1053 25
Width: 704
Flags: HMW
TeX: 0 0 0 0
HStem: 0 21G<98 168 535 605> 335 53<250 606 239 618> 675 20G<246 316 683 753>
Fore
246 695 m 1
 316 695 l 1
 250 388 l 1
 618 388 l 1
 683 695 l 1
 753 695 l 1
 605 0 l 1
 535 0 l 1
 606 335 l 1
 239 335 l 1
 168 0 l 1
 98 0 l 1
 246 695 l 1
EndSplineSet
EndChar
StartChar: afii10033
Encoding: 1055 1055 26
Width: 704
Flags: W
TeX: 0 0 0 0
HStem: 0 21G<98 168 535 605> 641 54<246 753>
Fore
246 695 m 1
 753 695 l 1
 605 0 l 1
 535 0 l 1
 672 641 l 1
 304 641 l 1
 168 0 l 1
 98 0 l 1
 246 695 l 1
EndSplineSet
EndChar
StartChar: afii10040
Encoding: 1062 1062 27
Width: 710
Flags: HW
TeX: 0 0 0 0
HStem: -167 21G<580 636> -0 55<98 615> 675 20G<246 316 683 753>
Fore
246 695 m 1
 316 695 l 1
 180 55 l 1
 547 55 l 1
 683 695 l 1
 753 695 l 1
 617 55 l 1
 683 55 l 1
 636 -167 l 1
 580 -167 l 1
 615 -0 l 1
 98 -0 l 1
 246 695 l 1
EndSplineSet
EndChar
StartChar: afii10041
Encoding: 1063 1063 28
Width: 704
Flags: MW
TeX: 0 0 0 0
HStem: 0 21G<535 605> 307 52<354.5 611> 675 20G<245 315 683 753>
VStem: 190 71<415.5 435>
Fore
190 424 m 0
 190 446 245 691 245 695 c 1
 315 695 l 1
 265 457 261 442 261 429 c 0
 261 389 299 365 339 360 c 0
 350 359 360 359 371 359 c 2
 611 359 l 1
 683 695 l 1
 753 695 l 1
 605 0 l 1
 535 0 l 1
 600 307 l 1
 362 307 l 2
 347 307 275 301 219 361 c 0
 196 386 190 407 190 424 c 0
EndSplineSet
EndChar
StartChar: afii10042
Encoding: 1064 1064 29
Width: 1102
Flags: HW
TeX: 0 0 0 0
HStem: 0 55<98 1003> 675 20G<246 312 663 730 1085 1151>
Fore
246 695 m 1
 312 695 l 1
 176 55 l 1
 528 55 l 1
 664 695 l 1
 730 695 l 1
 594 55 l 1
 949 55 l 1
 1085 695 l 1
 1085 695 l 1
 1151 695 l 1
 1003 0 l 1
 98 0 l 1
 246 695 l 1
EndSplineSet
EndChar
StartChar: afii10043
Encoding: 1065 1065 30
Width: 1108
Flags: HW
TeX: 0 0 0 0
HStem: -167 21G<978 1033> -0 55<98 1013> 675 20G<246 312 663 729 1084 1150>
Fore
246 695 m 1
 312 695 l 1
 176 55 l 1
 527 55 l 1
 664 695 l 1
 729 695 l 1
 593 55 l 1
 948 55 l 1
 1084 695 l 1
 1150 695 l 1
 1014 55 l 1
 1080 55 l 1
 1033 -167 l 1
 978 -167 l 1
 1013 -0 l 1
 98 -0 l 1
 246 695 l 1
EndSplineSet
EndChar
StartChar: afii10046
Encoding: 1068 1068 31
Width: 687
Flags: HW
TeX: 0 0 0 0
HStem: 0 53<99 373> 335 53<238 435.5> 675 20G<247 314>
VStem: 605 67<174.5 263.5>
Fore
247 695 m 1
 314 695 l 1
 249 388 l 1
 406 388 l 2
 465 388 518 390 577 360 c 0
 607 346 672 305 672 222 c 0
 672 127 564 19 408 2 c 0
 387 0 367 0 347 0 c 2
 99 0 l 1
 247 695 l 1
301 53 m 2
 445 53 464 68 529 102 c 0
 565 120 605 167 605 212 c 0
 605 252 577 290 522 314 c 0
 469 336 418 335 374 335 c 2
 238 335 l 1
 178 53 l 1
 301 53 l 2
EndSplineSet
EndChar
StartChar: afii10069
Encoding: 1076 1076 32
Width: 522
Flags: HMW
TeX: 0 0 0 0
HStem: -139 21<0 56 0 0 408 464 408 408> 0 50<85 437> 422 50<267 538>
Fore
267 472 m 1
 538 472 l 1
 449 50 l 1
 504 50 l 1
 464 -139 l 1
 408 -139 l 1
 437 0 l 1
 85 0 l 1
 56 -139 l 1
 0 -139 l 1
 40 50 l 1
 78 50 l 1
 133 99 195 150 253 407 c 2
 267 472 l 1
466 422 m 1
 313 422 l 1
 260 159 181 87 152 50 c 1
 387 50 l 1
 466 422 l 1
EndSplineSet
EndChar
StartChar: afii10072
Encoding: 1078 1078 33
Width: 750
Flags: W
TeX: 0 0 0 0
HStem: 0 21G<17 87 344 404 662 732> 452 20G<141 220 444 504 729 808>
Fore
444 472 m 1
 504 472 l 1
 456 245 l 1
 729 472 l 1
 808 472 l 1
 593 294 l 1
 732 0 l 1
 662 0 l 1
 544 252 l 1
 439 165 l 1
 404 0 l 1
 344 0 l 1
 379 167 l 1
 313 252 l 1
 87 0 l 1
 17 0 l 1
 281 293 l 1
 141 472 l 1
 220 472 l 1
 396 246 l 1
 444 472 l 1
EndSplineSet
EndChar
StartChar: afii10073
Encoding: 1079 1079 34
Width: 467
Flags: HW
TeX: 0 0 0 0
HStem: -8 52<160.5 301> 240 40<196 282.5> 434 51<257.5 351>
VStem: 402 60<128 181.5> 437 60<345.5 428.5>
Fore
437 370 m 0xe8
 437 432 345 434 297 434 c 0
 218 434 197 421 141 392 c 1
 128 442 l 1
 179 466 213 485 305 485 c 0
 397 485 497 475 497 382 c 0xe8
 497 309 434 287 365 261 c 1
 456 233 462 181 462 161 c 0
 462 95 396 -8 206 -8 c 0
 115 -8 73 25 41 59 c 1
 76 109 l 1
 105 70 143 44 217 44 c 0
 357 44 402 112 402 158 c 0xf0
 402 205 357 231 303 237 c 0
 283 240 263 240 243 240 c 2
 196 240 l 1
 204 280 l 1
 260 280 l 2
 305 280 345 282 390 306 c 0
 426 326 437 350 437 370 c 0xe8
EndSplineSet
EndChar
StartChar: afii10094
Encoding: 1100 1100 35
Width: 492
Flags: HW
TeX: 0 0 0 0
HStem: 0 52<81 356.873> 240 40<194 314> 452 20G<181 243>
VStem: 427 62<136.485 183.5>
Fore
489 166 m 0
 489 106.97 430.746 0 283 0 c 2
 81 0 l 1
 181 472 l 1
 243 472 l 1
 202 280 l 1
 303 280 l 2
 340 280 384 281 426 259 c 0
 474 233 489 194 489 166 c 0
427 159 m 0
 427 208 371 240 314 240 c 2
 194 240 l 1
 153 52 l 1
 247 52 l 2
 303 52 359 55 398 94 c 0
 414 111 427 135 427 159 c 0
EndSplineSet
EndChar
StartChar: afii10092
Encoding: 1098 1098 36
Width: 625
Flags: HW
TeX: 0 0 0 0
HStem: -0 52<214 391.5> 240 40<327 455> 452 20G<126 376>
VStem: 560 62<146.5 181>
Fore
126 472 m 1
 376 472 l 1
 335 280 l 1
 436 280 l 2
 473 280 517 281 559 259 c 0
 607 233 622 194 622 166 c 0
 622 107 564 0 416 0 c 2
 214 0 l 1
 304 422 l 1
 115 422 l 1
 126 472 l 1
560 159 m 0
 560 208 504 240 447 240 c 2
 327 240 l 1
 286 52 l 1
 380 52 l 2
 436 52 492 55 531 94 c 0
 547 111 560 135 560 159 c 0
EndSplineSet
EndChar
StartChar: afii10095
Encoding: 1101 1101 37
Width: 467
Flags: HMW
TeX: 0 0 0 0
HStem: -8 52<155 273> 240 40<151 406 142 412> 433 52<257.5 359>
VStem: 412 64<219.5 346.5>
Fore
290 433 m 0
 225 433 192 422 126 387 c 1
 128 442 l 1
 199 476 232 485 302 485 c 0
 416 485 476 397 476 296 c 0
 476 143 347 -8 199 -8 c 0
 111 -8 56 34 41 58 c 1
 57 111 l 1
 77 91 117 44 210 44 c 0
 288 44 377 106 406 240 c 1
 142 240 l 1
 151 280 l 1
 412 280 l 1
 412 318 412 351 390 384 c 0
 358 432 305 433 290 433 c 0
EndSplineSet
EndChar
StartChar: afii10097
Encoding: 1103 1103 38
Width: 533
Flags: HW
TeX: 0 0 0 0
HStem: 0 21G<17 96 388 452> 216 40<335 443> 422 50<382.5 552>
VStem: 144 61<289.5 344>
Fore
144 327 m 0
 144 379.072 186.298 472 363 472 c 2
 552 472 l 1
 452 0 l 1
 388 0 l 1
 434 216 l 1
 335 216 l 1
 96 0 l 1
 17 0 l 1
 275 219 l 1
 214 225 144 252 144 327 c 0
205 329 m 0
 205 258 283 256 336 256 c 2
 443 256 l 1
 478 422 l 1
 390 422 l 2
 336 422 281 424 246 403 c 0
 220 388 205 359 205 329 c 0
EndSplineSet
EndChar
